# xmcd
#
# Track frame offsets:
#	150
#	17742
#	31995
#	51616
#	77103
#	90518
#	106893
#	122862
#	148245
#	165517
#	184480
#	201319
#	217214
#	237617
#	263318
#	278437
#	300276
#
# Disc length: 4340 seconds
#
# Revision: 0
# Processed by: cddbd v1.5.2PL0 Copyright (c) Steve Scherf et al.
# Submitted via: EasyCDDAExtractor 10.2.0.1
#
DISCID=f210f211
DTITLE=Van Morrison - The Best Of Van Morrison, Vol. 3 [cd2]
DYEAR=2007
DGENRE=Blues
TTITLE0=Shenandoah (With The Chieftains)
TTITLE1=Precious Time
TTITLE2=Back On Top (Remix)
TTITLE3=When The Leaves Come Falling Down
TTITLE4=Lost John (With Lonnie Donegan) Live
TTITLE5=Tupelo Honey (With Bobby Bland)
TTITLE6=Meet Me In The Indian Summer (Orchestral Version Remix)
TTITLE7=Georgia On My Mind
TTITLE8=Hey Mr DJ
TTITLE9=Steal My Heart Away
TTITLE10=Crazy Love (With Ray Charles)
TTITLE11=Once In A Blue Moon
TTITLE12=Little Village
TTITLE13=Blue And Green
TTITLE14=Sitting On Top Of The World (With Carl Perkins)
TTITLE15=Early In The Morning (With Bb King)
TTITLE16=Stranded
EXTD=
EXTT0=
EXTT1=
EXTT2=
EXTT3=
EXTT4=
EXTT5=
EXTT6=
EXTT7=
EXTT8=
EXTT9=
EXTT10=
EXTT11=
EXTT12=
EXTT13=
EXTT14=
EXTT15=
EXTT16=
PLAYORDER=
